<svg xmlns="http://www.w3.org/2000/svg" xmlns:xlink="http://www.w3.org/1999/xlink" id="Layer_1" width="12" height="16" x="0" style="enable-background:new 0 0 12 16" y="0" version="1.1" viewBox="0 0 12 16" xml:space="preserve"><path d="M6,0C2.687,0,0,2.719,0,6.072c0,4.29,4.312,8.579,5.625,9.787C5.727,15.953,5.863,16,6,16s0.273-0.047,0.375-0.141 C7.688,14.651,12,10.362,12,6.072C12,2.719,9.313,0,6,0z M6,13.449c-2.085-2.154-4.023-4.99-4.023-7.377C1.977,3.827,3.781,2,6,2 s4.023,1.827,4.023,4.072C10.023,8.46,8.084,11.296,6,13.449z"/><circle cx="6" cy="6" r="2"/></svg>