<svg xmlns="http://www.w3.org/2000/svg" xmlns:xlink="http://www.w3.org/1999/xlink" id="Layer_1" width="30" height="30" x="0" style="enable-background:new 0 0 16 16" y="0" version="1.1" viewBox="0 0 16 16" xml:space="preserve"><path fill="#fff" d="M15,0H1C0.447,0,0,0.447,0,1v14c0,0.553,0.447,1,1,1h14c0.553,0,1-0.447,1-1V1C16,0.447,15.553,0,15,0z M14,14H2V2h12V14z"/><path fill="#fff" d="M6.748,11.798l4.074-3.446c0.233-0.194,0.209-0.509-0.022-0.703L6.76,4.202C6.296,3.813,6,4.002,6,4.624v6.752 C6,11.998,6.285,12.187,6.748,11.798z"/></svg>